<svg width="54" height="50" viewBox="0 0 54 50" fill="none" xmlns="http://www.w3.org/2000/svg">
<path fill-rule="evenodd" clip-rule="evenodd" d="M2.22063 48.8237C3.16702 49.5826 4.34787 50 5.57106 50H48.4279C49.6511 50 50.8319 49.5826 51.7783 48.8237L33.2385 33.9912L29.6582 36.6429C28.0801 37.8126 25.9215 37.8126 24.3434 36.6429L20.7631 33.9912L2.22326 48.8237H2.22063ZM19.2788 32.8906L0.214355 18.7702V44.6425C0.214355 45.6559 0.502302 46.6425 1.03132 47.4863L19.2769 32.8904L19.2788 32.8906ZM53.7854 18.7702L34.721 32.8906L52.9666 47.4865C53.4978 46.6428 53.7835 45.6562 53.7835 44.6428V18.7704L53.7854 18.7702ZM14.5 0C13.5536 0 12.6451 0.377232 11.9754 1.04685C11.3058 1.71647 10.9286 2.62495 10.9286 3.5714V24.4775C10.9286 24.4775 21.3079 32.1649 24.8748 34.8078C26.1381 35.743 27.8614 35.743 29.1247 34.8078C32.6917 32.1649 43.0709 24.4775 43.0709 24.4775V3.5714C43.0709 2.62501 42.6937 1.7165 42.0241 1.04685C41.3545 0.377198 40.446 0 39.4995 0H14.5ZM44.8569 10.7142V23.1604L53.7854 16.549V16.0714C53.7854 14.6495 53.2207 13.2879 52.2162 12.2834C51.2118 11.279 49.8502 10.7142 48.4283 10.7142L44.8569 10.7142ZM9.14287 10.7142H5.57146C4.14959 10.7142 2.78799 11.2789 1.78354 12.2834C0.779094 13.2879 0.214355 14.6494 0.214355 16.0713V16.549L9.14287 23.1604V10.7142ZM20.3794 17.3347L24.8436 21.799C25.5401 22.4977 26.6717 22.4977 27.3682 21.799L35.4035 13.7636C36.1 13.0672 36.1 11.9355 35.4035 11.2391C34.7071 10.5426 33.5754 10.5426 32.879 11.2391L26.1065 18.0116L22.9056 14.8107C22.2091 14.1142 21.0775 14.1142 20.381 14.8107C19.6846 15.5071 19.6846 16.6388 20.381 17.3353L20.3794 17.3347Z" fill="#3D6BD8"/>
</svg>
