<svg width="32" height="24" viewBox="0 0 32 24" fill="none" xmlns="http://www.w3.org/2000/svg">
<path d="M24.7269 14.4289C25.0826 14.4289 25.424 14.3743 25.7638 14.3247C25.6537 14.6966 25.5405 15.075 25.3586 15.4148C25.1767 15.9086 24.8928 16.3367 24.6104 16.7679C24.3743 17.2345 23.958 17.5503 23.6517 17.9495C23.331 18.3375 22.8939 18.5956 22.5478 18.9178C22.208 19.2545 21.7629 19.4228 21.4088 19.6601C21.0387 19.8733 20.7164 20.109 20.3718 20.2212L19.512 20.5772L18.7559 20.893L19.5296 24L20.4819 23.7691C20.7866 23.6922 21.1583 23.6024 21.581 23.495C22.0134 23.4148 22.4744 23.1952 22.9881 22.9948C23.4953 22.7671 24.0824 22.6132 24.628 22.2477C25.1767 21.8982 25.8101 21.6064 26.3684 21.1383C26.9092 20.6557 27.5616 20.2373 28.0434 19.6232C28.5698 19.0493 29.0899 18.4465 29.4935 17.7603C29.9609 17.1062 30.2784 16.388 30.6134 15.6778C30.9165 14.9675 31.1605 14.2413 31.3599 13.5359C31.738 12.1218 31.9071 10.7784 31.9725 9.62886C32.0268 8.47776 31.9949 7.52064 31.9279 6.82806C31.9039 6.501 31.8593 6.18357 31.8274 5.96393L31.7875 5.69459L31.746 5.70421C31.4623 4.37222 30.8091 3.14817 29.8621 2.17366C28.915 1.19915 27.7128 0.514002 26.3945 0.197475C25.0762 -0.119051 23.6956 -0.0540218 22.4126 0.385038C21.1295 0.824097 19.9963 1.61925 19.1441 2.67851C18.2919 3.73776 17.7556 5.01785 17.597 6.37067C17.4385 7.72349 17.6643 9.09378 18.2484 10.323C18.8324 11.5522 19.7508 12.5902 20.8972 13.3168C22.0437 14.0434 23.3715 14.4289 24.7269 14.4289ZM7.17912 14.4289C7.53486 14.4289 7.87624 14.3743 8.21603 14.3247C8.10596 14.6966 7.99269 15.075 7.81083 15.4148C7.62897 15.9086 7.34502 16.3367 7.06266 16.7679C6.82656 17.2345 6.4102 17.5503 6.10392 17.9495C5.78327 18.3375 5.34617 18.5956 5 18.9178C4.66021 19.2545 4.21514 19.4228 3.86099 19.6601C3.49089 19.8733 3.16865 20.109 2.82408 20.2212L1.96424 20.5772L1.20809 20.893L1.98178 24L2.93415 23.7691C3.23885 23.6922 3.61054 23.6024 4.03328 23.495C4.46559 23.4148 4.92662 23.1952 5.44029 22.9948C5.94598 22.7655 6.53463 22.6132 7.08021 22.2461C7.62897 21.8966 8.26229 21.6048 8.82063 21.1367C9.36142 20.6541 10.0139 20.2357 10.4956 19.6232C11.0221 19.0493 11.5421 18.4465 11.9457 17.7603C12.4131 17.1062 12.7306 16.388 13.0656 15.6778C13.3687 14.9675 13.6128 14.2413 13.8122 13.5359C14.1902 12.1218 14.3593 10.7784 14.4247 9.62886C14.479 8.47776 14.4471 7.52064 14.3801 6.82806C14.3562 6.501 14.3115 6.18357 14.2796 5.96393L14.2397 5.69459L14.1982 5.70421C13.9145 4.37222 13.2613 3.14817 12.3143 2.17366C11.3673 1.19915 10.165 0.514002 8.84673 0.197475C7.52842 -0.119051 6.14787 -0.0540218 4.8648 0.385038C3.58172 0.824097 2.44855 1.61925 1.59636 2.67851C0.744173 3.73776 0.207788 5.01785 0.0492668 6.37067C-0.109257 7.72349 0.116558 9.09378 0.700584 10.323C1.28461 11.5522 2.20299 12.5902 3.34947 13.3168C4.49596 14.0434 5.8237 14.4289 7.17912 14.4289Z" fill="#3D6BD8"/>
</svg>
