<svg width="64" height="50" viewBox="0 0 64 50" fill="none" xmlns="http://www.w3.org/2000/svg">
<path d="M31.9985 40.3203C36.2728 40.3506 40.3659 38.593 43.2877 35.4743C46.2128 32.3586 47.7012 28.1599 47.3957 23.8978C47.0901 19.6326 45.018 15.6908 41.6784 13.023C37.997 10.1009 33.1903 9.00882 28.6105 10.0525C23.8159 11.1536 19.8412 14.4902 17.9261 19.0184C16.0082 23.5499 16.3834 28.7224 18.9304 32.9305L18.1893 36.739C17.7204 38.9291 18.6249 41.1887 20.4792 42.4502C21.4169 43.1278 22.5483 43.4908 23.7069 43.4817C24.7293 43.4847 25.7336 43.2064 26.6109 42.674L30.7098 40.2207L30.7067 40.2237C31.1363 40.2872 31.566 40.3173 31.9985 40.3203ZM25.5463 27.4127C24.5662 27.4127 23.6829 26.8228 23.3108 25.9183C22.9357 25.0138 23.1414 23.9733 23.8341 23.2806C24.5269 22.5909 25.5675 22.3821 26.4719 22.7573C27.3763 23.1324 27.9662 24.0126 27.9662 24.9927C27.9481 26.3206 26.8742 27.3946 25.5463 27.4127ZM38.4509 22.5727C39.431 22.5727 40.3143 23.1626 40.6863 24.0671C41.0615 24.9715 40.8558 26.0121 40.163 26.7048C39.4703 27.3945 38.4297 27.6033 37.5253 27.2281C36.6209 26.853 36.0309 25.9728 36.0309 24.9927C36.0491 23.6647 37.123 22.5908 38.4509 22.5727ZM29.5786 24.9927C29.5786 24.0126 30.1684 23.1324 31.0729 22.7572C31.9774 22.3821 33.018 22.5909 33.7107 23.2806C34.4004 23.9733 34.6091 25.0139 34.234 25.9183C33.8589 26.8228 32.9786 27.4127 31.9985 27.4127C30.6706 27.3945 29.5967 26.3206 29.5786 24.9927ZM63.4584 21.765V28.2203C63.4584 33.1208 59.4866 37.0926 54.5862 37.0926H53.0677C51.7366 40.8647 49.2683 44.1287 46.0013 46.4396C42.7373 48.7507 38.8381 49.9939 34.8391 50H31.9986C30.6615 50 29.5786 48.9141 29.5786 47.58C29.5786 46.2429 30.6615 45.16 31.9986 45.16H34.8391C38.0608 45.163 41.1946 44.0982 43.7447 42.1289C46.2978 40.1627 48.1248 37.4039 48.9386 34.2851V15.8931L48.5181 15.0219C46.458 10.917 42.94 7.72866 38.6569 6.07377C34.3736 4.41912 29.6243 4.41912 25.3412 6.07377C21.0578 7.72843 17.5399 10.9168 15.48 15.0219L15.0595 15.8931V34.6723C15.0414 36.0002 13.9674 37.0741 12.6395 37.0923H9.41182C4.51136 37.0923 0.539551 33.1205 0.539551 28.22V21.7647C0.539551 16.8642 4.51136 12.8924 9.41182 12.8924H11.1542C13.7467 7.70156 18.1813 3.66315 23.5903 1.56996C29.002 -0.523318 34.9971 -0.523318 40.4094 1.56996C45.8181 3.66323 50.2528 7.70163 52.8454 12.8924H54.5878C59.4883 12.8924 63.4601 16.8642 63.4601 21.7647L63.4584 21.765Z" fill="#3D6BD8"/>
</svg>
