<svg width="62" height="50" viewBox="0 0 62 50" fill="none" xmlns="http://www.w3.org/2000/svg">
<path fill-rule="evenodd" clip-rule="evenodd" d="M25.4889 47.5888C25.0232 47.6156 24.5547 47.6297 24.0827 47.6297C10.9659 47.6297 0.267822 36.9316 0.267822 23.8148C0.267822 10.6973 10.9659 0 24.0827 0C32.2787 0 39.53 4.17635 43.8178 10.5097L40.4543 15.0945C37.3342 9.24808 31.1745 5.27 24.0827 5.27C13.8383 5.27 5.53853 13.5705 5.53853 23.8148C5.53853 34.0585 13.8383 42.359 24.0827 42.359C30.6368 42.359 36.3958 38.9609 39.6937 33.8306C38.2317 38.9016 34.847 43.6523 27.0454 45.6562C26.2234 45.8671 25.6124 46.5579 25.5044 47.3997C25.496 47.4632 25.491 47.526 25.4889 47.5888ZM22.7865 16.7999C22.7865 16.0845 23.3672 15.5038 24.0827 15.5038C24.7981 15.5038 25.3788 16.0845 25.3788 16.7999V23.0662L29.4176 25.3975C30.0371 25.7552 30.2502 26.5483 29.8924 27.1678C29.5347 27.7873 28.7416 28.0004 28.1221 27.6426L23.4349 24.9367C23.0335 24.7053 22.7865 24.2777 22.7865 23.8148V16.7999ZM22.7865 9.05052C22.7865 8.33505 23.3672 7.75436 24.0827 7.75436C24.7981 7.75436 25.3788 8.33505 25.3788 9.05052V10.6487C25.3788 11.3641 24.7981 11.9448 24.0827 11.9448C23.3672 11.9448 22.7865 11.3641 22.7865 10.6487V9.05052ZM33.6102 12.4543C34.1161 11.9483 34.9374 11.9483 35.4433 12.4543C35.9485 12.9602 35.9485 13.7815 35.4433 14.2866L34.3087 15.4212C33.8035 15.9264 32.9822 15.9264 32.4763 15.4212C31.9704 14.9153 31.9704 14.094 32.4763 13.5881L33.6102 12.4543ZM35.4433 33.3423C35.9485 33.8482 35.9485 34.6695 35.4433 35.1747C34.9374 35.6806 34.1161 35.6806 33.6102 35.1747L32.4763 34.0409C31.9704 33.535 31.9704 32.7137 32.4763 32.2085C32.9822 31.7026 33.8035 31.7026 34.3087 32.2085L35.4433 33.3423ZM14.5552 35.1747C14.0493 35.6806 13.228 35.6806 12.7221 35.1747C12.2169 34.6695 12.2169 33.8482 12.7221 33.3423L13.8566 32.2085C14.3618 31.7026 15.1831 31.7026 15.689 32.2085C16.195 32.7137 16.195 33.535 15.689 34.0409L14.5552 35.1747ZM12.7221 14.2866C12.2169 13.7815 12.2169 12.9602 12.7221 12.4543C13.228 11.9483 14.0493 11.9483 14.5552 12.4543L15.689 13.5881C16.195 14.094 16.195 14.9153 15.689 15.4212C15.1831 15.9264 14.3618 15.9264 13.8566 15.4212L12.7221 14.2866ZM25.3788 38.5792C25.3788 39.2939 24.7981 39.8746 24.0827 39.8746C23.3672 39.8746 22.7865 39.2939 22.7865 38.5792V36.9803C22.7865 36.2649 23.3672 35.6842 24.0827 35.6842C24.7981 35.6842 25.3788 36.2649 25.3788 36.9803V38.5792ZM9.31834 25.1103C8.60358 25.1103 8.02289 24.5296 8.02289 23.8148C8.02289 23.0994 8.60358 22.5187 9.31834 22.5187H10.9172C11.6319 22.5187 12.2126 23.0994 12.2126 23.8148C12.2126 24.5296 11.6319 25.1103 10.9172 25.1103H9.31834ZM42.8646 23.8297H37.8959C37.6517 23.8297 37.4281 23.6928 37.318 23.4748C37.2072 23.2567 37.2291 22.9957 37.3737 22.7988L48.0097 8.30189C48.1741 8.07681 48.4331 7.94063 48.7118 7.93146C48.9905 7.92299 49.2579 8.04224 49.4364 8.25603L61.5809 22.7663C61.7425 22.959 61.7777 23.2285 61.6712 23.4564C61.5647 23.6843 61.3353 23.8297 61.0842 23.8297H56.4647C56.4647 46.8056 39.5737 54.3384 27.5612 47.6643C41.9382 43.9727 42.8646 31.9171 42.8646 23.8297Z" fill="#3D6BD8"/>
</svg>
