<svg width="42" height="50" viewBox="0 0 42 50" fill="none" xmlns="http://www.w3.org/2000/svg">
<path d="M28.3227 16.6938L27.0896 15.4607C26.5535 14.9246 25.6778 14.9246 25.1417 15.4607L19.0032 21.5906L16.8856 19.4729C16.3494 18.9367 15.4737 18.9367 14.9377 19.4729L13.7046 20.7059C13.1685 21.2421 13.1685 22.1178 13.7046 22.6538L18.0294 26.9786C18.5655 27.5147 19.4412 27.5147 19.9773 26.9786L28.3231 18.6327C28.8593 18.0966 28.8593 17.2209 28.3231 16.6848L28.3227 16.6938Z" fill="#3D6BD8"/>
<path d="M40.0728 17.2924L37.9372 15.1568C37.1241 14.3437 36.6594 13.2357 36.6594 12.083V9.0539C36.6594 6.6592 34.7383 4.69339 32.2989 4.69339H29.3055C28.1529 4.69339 27.0449 4.21982 26.2317 3.41561L24.0962 1.28002C22.3895 -0.426672 19.6552 -0.426672 17.9394 1.28002L15.8038 3.41561C14.9907 4.22875 13.8827 4.69339 12.73 4.69339H9.70087C7.30617 4.69339 5.34037 6.61453 5.34037 9.0539V12.0473C5.34037 13.2 4.86679 14.308 4.06258 15.1211L1.92699 17.2567C0.220301 18.9634 0.220301 21.6976 1.92699 23.4134L4.06258 25.549C4.87572 26.3622 5.34037 27.4702 5.34037 28.6228V31.652C5.34037 34.0467 7.26151 36.0125 9.70087 36.0125H12.6943C13.8469 36.0125 14.9549 36.486 15.7681 37.2903L17.9037 39.4258C19.6103 41.1325 22.3446 41.1325 24.0604 39.4258L26.196 37.2903C27.0091 36.4771 28.1171 36.0125 29.2698 36.0125H32.2989C34.6936 36.0125 36.6594 34.0913 36.6594 31.652V28.6586C36.6594 27.5059 37.133 26.3979 37.9372 25.5848L40.0728 23.4492C41.7795 21.7425 41.7795 18.9635 40.0728 17.2924ZM20.9958 32.7506C14.1425 32.7506 8.58453 27.1928 8.58453 20.3394C8.58453 13.486 14.1424 7.92806 20.9958 7.92806C27.8492 7.92806 33.4071 13.486 33.4071 20.3394C33.4071 27.1928 27.8492 32.7506 20.9958 32.7506Z" fill="#3D6BD8"/>
<path d="M29.2611 37.7905C28.5909 37.7905 27.9297 38.0675 27.4472 38.55L25.3116 40.6856C24.15 41.8472 22.6041 42.4906 20.9689 42.4906C19.3337 42.4906 17.7968 41.8472 16.6262 40.6856L14.4906 38.55C14.0081 38.0675 13.3469 37.7905 12.6767 37.7905H10.845V48.4325C10.845 49.6745 12.23 50.4251 13.2665 49.737L20.9959 44.6348L28.707 49.737C29.7435 50.425 31.1374 49.6834 31.1374 48.4325V37.7905H29.252H29.2611Z" fill="#3D6BD8"/>
</svg>
